<?xml version="1.0" encoding="UTF-8"?>
<svg version="1.1" viewBox="0 0 236.5 140.55" xmlns="http://www.w3.org/2000/svg" xmlnsCc="http://creativecommons.org/ns#" xmlnsDc="http://purl.org/dc/elements/1.1/" xmlnsRdf="http://www.w3.org/1999/02/22-rdf-syntax-ns#">
<g transform="translate(-256.75 -462.09)">
<path d="m466.05 470.58c-5.5325 0.47965-11.467 0.48923-16.402 1.0716-2.664 0.32881-5.1498 1.3166-7.583 0.46707-4.4555 0.0564-10.714 0.97828-14.04 2.5551-1.2393 1.4235-13.198 2.1537-3.8739 2.665 3.2986 0.81652-7.2748 0.0297-1.9508 2.2529 2.6805 0.25065 4.7507-1.1448 6.5115-0.35717 5.1421-0.69581 3.2287 5.6562 3.5992 6.8412 4.7293 0.10089 1.2386 1.6227-0.0735 1.4174 7.4358 2.0765-3.3959 2.4778-1.4579 5.4683-1.1512 1.7261 0.38666 5.805 1.5315 8.2253 2.6285 0.0286 4.2753 3.0335 6.6764 1.1815 1.3598-2.6145 3.9039-3.8834 4.0388-5.6323 0.59619-1.1984 4.7079-3.0032 5.6323-2.4178 3.7361-0.0434 5.4586-4.8628 9.039-3.6816 3.8844 0.0184 12.959-4.5061 3.7366-2.72-0.64106-0.51166 2.9741-2.5882 4.7256-0.93414 3.7095-0.24607-2.7039-2.3095-1.4543-3.6976 2.4011 1.9086 5.1903-1.1347 6.5371-2.0446 2.0916 0.5773 1.2369-2.9775 0.76943-3.3244 0.76838-1.0702 1.0904-3.4298 3.6816-3.9564 7.4485-0.91673 0.36123-2.0632-3.3244-1.0165-5.2904 2.8826 0.62782-1.4921-4.7256-0.35717 5.6708-1.1574 3.3673-0.71628-1.5913-2.0049zm-43.08 0.46707c-5.3998 0.12878-9.9718 1.415-15.578 1.5935-3.6927 1.5707 11.953 1.3482 2.7749 1.8408-2.0103-0.18148 3.4826 3.4478-1.8958 1.8408-1.6466-0.1994-10.357 3.4011-5.0828 2.8299 4.3844-1.1684 6.8104 2.1771 9.9454-1.0165 3.9187-0.82889 5.6871-4.8414 10.056-3.1046 2.68-2.1177 10.488-1.6609 10.468-3.2145-3.5453-0.71162-7.2781-0.23415-10.687-0.76929zm-18.628 1.8683c-5.2648 0.70227-6.0128 3.1074-1.566 2.7475-6.7918 1.1742 3.1626 1.512 5.3301 0.13737 2.3852-1.4611-0.68151-0.87998-1.7858-1.7858-1.0259 0.26172-0.77803-1.3374-1.9782-1.099zm-14.287 2.3353c-4.8428 1.4383 5.1313 3.7195 2.9673 0.5495-1.0652 0.20886-1.9004-0.69973-2.9673-0.5495zm-7.2808 0.46707c-3.4268 2.2694 5.9307 0.10762 0 0zm13.023 0.41212c-2.1844 2.2622 5.611 0.20519 0 0zm-15.825 0.60445c-4.4768 0.60302 1.025 1.4894 0 0zm2.8299 0.0824c-6.254 0.41766-0.723 2.3074 0 0zm3.7091 0.27475c-2.3525 1.8871 1.86 1.2414 0 0zm11.1 0.32969c-5.7082-0.12823 2.9418 1.4257 0 0zm-22.254 0.0274c-2.0346 0.19795-10.265 1.4245-7.7204 2.4727 1.9646-0.39663 8.4334-0.48119 7.7204-2.4727zm26.376 0.0274c-3.9856 0.25695-0.0334 1.5344 0 0zm-6.1269 0.90663c-5.4274 0.8536 4.2679 0.27012 0.24727 2.8574 3.3466 1.3011 6.2627-0.67207 10.303 0.82424 7.5175-1.8312-2.6649-2.57-5.1652-2.0056-1.542 0.27483-1.6189-2.0883-5.385-1.6759zm-15.359 0.21979c-1.7357 3.4912-6.7132-1.2097-10.248 2.0881 1.3413 0.86948 5.0527-0.89018 2.665 1.2638 2.1755-0.28115 13.963-1.6732 8.4622-2.0881 0.41748-1.0251 0.58868-1.4042-0.87919-1.2638zm9.4513 0.1099c-6.3363 2.0611 3.6693 3.4244 1.8957 0.0824-0.56997 0.9257-1.0344-0.46916-1.8957-0.0824zm-4.2586 0.1099c-0.93449 2.6923 3.6244 0.7568 0 0zm-1.5112 1.5111c-2.4682 0.51429 0.78405 1.2776 0.3297 0.0824zm9.8083 0.13737c-6.5561 0.59817 3.539 1.5956 0 0zm-31.294 1.2089c-1.5323 1.127-9.2051 3.5089-4.9179 4.8905 3.6901-1.1794 8.3394-2.7999 11.484-3.7915-1.8143-1.2937-4.3474-0.38746-6.5665-1.099zm31.596 0.57697c-5.7761 0.14015-6.0087 4.3205-0.60444 1.9507 1.4189-1.0702 5.0257-1.8213 0.60444-1.9507zm6.3192 0.27475c-3.496 0.0132-8.2511 3.7047-4.863 4.2036-5.9246 0.58851 4.3629 1.6444 6.3192 1.9507 3.5667-2.4466 4.938 0.98425 4.396 1.5935 4.0668-1.0302 3.0446 3.6574-0.52202 3.7366 0.77166 2.8613-7.7307-0.67238-5.3888 3.2156 2.4745-1.306 7.6215-0.65852 5.6637 1.5926 2.479 1.0523 8.8244 2.7634 3.9489-0.957 2.2043 1.9309 6.554 1.2033 4.1561-2.0103-2.8818-4.8784 3.2282 0.89888 4.918-0.8792 3.8783-2.1251 0.2912-2.5832-1.4836-3.9289-5.4443-1.0967 2.4828-1.7862-1.7584-4.0663-3.5933-0.97528-6.5571-3.8918-10.303-2.0056 1.7503-1.4144-4.0058-3.2832-6.3466 0.16485-0.12495 3.4258-1.0258-2.5072 2.5551-2.4178-0.35204-0.35778-0.89783 0.0639-1.2914-0.19233zm-11.539 0.13737c-5.0102-0.0385-4.3596 1.1954-7.0061 1.9507 2.8107 3.669 5.5215-0.38013 7.1709-1.2638v-0.57697l-0.16485-0.10989zm-7.9952 0.0274c-4.9062-0.10134 1.6441 2.3767 0 0zm25.799 0.13737c-1.3082 2.8219 8.2976-0.34817 0.46707 0zm-29.947 0.6594c-2.5521 3.9388-1.7062 0.0352-5.5499 0.41212-2.1279 0.62994-5.2052-0.688-8.5172 2.0056 2.4436 0.73354-3.4714 1.8656 2.4178 1.4287 8.3623 0.72696-10.323 1.0513-0.68687 1.8133-0.82834 3.7108 7.3537-1.5505 9.286 0.65939 3.1464 0.21428 7.9644-1.5525 3.6541-3.1321 0.92834-0.91172 2.0591-3.6478-0.60449-3.1871zm11.896 2.0056c-4.0674 0.64007-2.6283 3.5802-3.3794 4.0937 1.8321 0.6882-3.2478 2.3699-3.5443 2.3079 1.7507-3.4263-3.8115 0.88464-5.6323-0.24728-2.2874-0.48872-6.3835-2.9115-7.0335-0.71434 5.2738 0.11115-3.4396 1.8272-5.3301 0.65939-6.419 0.98487 2.3058-2.2879-3.3244-1.8408-3.8798-2.1021-8.2095 7e-3 -9.7221-1.8384-1.2711-0.3568-11.021 3.963-7.834 1.4813 8.0449-2.2025-0.11994-0.96799-3.6267-0.055-3.1472 0.9344-6.8314-1.9931-10.413-1.4287-4.9277-0.33797-8.7328-2.1024-13.682-0.52202-3.988 0.47198-8.1241 2.415-12.116 3.4892 2.9158 1.2515 0.72361 4.3807-0.54949 2.9673 0.75294-1.3567-9.1401 1.2387-5.385 1.7584-4.0253 1.8518 7.8015-0.0375 1.731 1.8408-2.1803 2.2422-7.4167 1.2554-8.9291 4.3135-2.8375 2.9836 4.9538 0.90372-0.4396 3.9838 2.2038-0.0487 3.413 0.3207 5.1927 0.0274 2.4648 0.0226-5.064 2.9286-6.7313 3.6267-3.9492 0.22879-9.6104 3.7288-2.5002 1.621 4.6145-0.66229 8.2649-3.4469 12.941-4.396 2.5649-2.1477 5.5839-3.1549 8.8746-4.863 3.7735-0.26758-7.7598 2.9666-2.9123 3.2695 3.6935 9e-3 5.6456-4.1334 8.2424-1.8957 2.7417-0.0316 7.7923 1.93 7.8028 3.7366-3.1066 4.2476 2.252 1.5485 2.3628-0.49455 0.0499 3.0155 0.40522 5.8741-1.1561 8.3643 2.5815-0.71646-0.0652 3.2321 1.2111 3.8894 2.6348 1.0063 4.3819 5.894 0 5.0279-1.3678-0.54485-2.2656 6.7965-5.4949 8.215-2.612 3.2113-2.7533 7.2132-2.198 10.853-0.12146 1.2747 0.34564 4.9289 3.2695 5.385 2.2691 2.7537 1.2366 7.433 3.2695 10.056-5.1324 1.5157 3.1878 1.9805 1.7584 5.2202 0.33666 3.5307 5.158 5.0527 1.8408 1.3463-0.8587-3.2136-1.014-7.307-3.0222-9.4513-0.72521-6.5926 3.782-1.125 3.3794 2.665 2.6687 2.1062 1.5104 5.825 5.3301 8.1325 2.565 2.8105 0.16414 5.5912 1.5935 7.7204 1.7391 2.7748 5.9127 3.1779 8.737 5.44 4.1853 2.0332 7.6489-2.1457 9.8909 3.8465 3.4436 1.517 6.5725 0.12258 8.05 3.8465 0.5506 4.2123 2.664 2.0663 3.5802 5.3773 2.7431 0.7275 5.5112 3.8862 6.0634-0.26697 2.0274-0.45026 4.7046 4.6166 3.0222-0.65943-3.0459-2.2125-7.1581 2.2347-8.3523-2.6102-0.92166-3.3842 3.1192-9.461-2.3079-9.3414-5.1907 0.81516-5.6753-0.36403-3.242-4.7531 0.24884-0.6935 4.6812-6.5813-0.10989-4.8904-3.6351 0.0649-3.6205 4.1442-5.5265 5.3349-2.8472-0.30905-7.0451 0.66674-7.5515-3.6315-2.1946-3.9895 1.6386-7.4543 1.5386-11.182 0.1653-2.531 4.236-3.9346 6.484-5.0829 2.13-0.18003 6.8541 3.3919 6.4016-0.13738 0.45104-2.466 5.7249 0.79291 7.5281-0.21979 3.6015 1.1526 0.52078 7.3293 4.0662 8.5721 3.3985-2.9831-1.575-8.9888 2.0332-12.143 2.4851-2.2542 5.4374-3.2915 7.638-6.1543 2.9554 0.1777-0.1-6.7031 2.6968-6.3696-2.6219 5.834 1.0554 1.8698 1.6716-4e-3 2.3418-1.9933 4.4404-4.6574 8.16-3.9014-1.0823-1.7303 0.36977-4.4919 3.9013-5.0554 0.98356-0.46073 6.5397-3.3008 4.3409-1.099-4.5624 4.1404 3.6651 0.63249 5.8795-0.35717 0.0612-1.4044-5.6754-1.6463-3.9289-4.8081-3.1951 1.0179 6.0433-3.1483-1.1264-2.1155-4.1438 1.8088-6.7231 2.0524-1.0165-0.13738 3.8324-4.0999 10.608 0.98364 14.397-3.7091 5.7434-0.94953 2.3504-5.1537 0.41213-6.6489-4.1607-1.0513-1.0004-3.481-3.2145-6.8137-0.54933-3.9601-4.2337 4.6408-6.9786 0.96166 2.7501-3.7702-1.3229-5.282-4.8356-5.1378-3.6988-1.839-5.6175 5.4557-6.2368 6.1543 3.0843 5.1802-6.4253 3.9275-5.962 8.1051 0.0778 5.1518-6.4167 3.8539-3.7365-0.71434 2.2515-4.0465-4.8447-1.4039-5.495-4.6707-3.8556-0.90961-4.8701 0.17256-4.918-3.6267-1.0118-1.8102 4.0812-4.8723 6.4016-5.7422 1.7755-1.7412 1.7986-1.2528 4.5333-2.4727 3.5557 0.80862 5.3757-4.0848 8.05-3.5442 1.1671 0.10522 6.532-6e-3 5.2201-3.0222 4.659-0.84576-2.35-3.1867-3.5442-0.30223-3.4548 3.5396-3.8761 0.64674-3.6815-0.76929-2.4695 1.9478-1.7726-1.0286-1.4013-2.5002 0.5781-0.86563-0.80645-1.2517-1.3736-1.3462zm43.273 2.1155c-3.9887 2.1414 5.3044 1.6359 0.63192 0.24727zm-49.317 0.65939c-7.0769 1.8023 4.3938 2.84 0.13737 0zm21.567 0.57697c-3.1164 0.65093-0.3666 1.925 0 0zm-115.83 0.68687 0.13737 0.055zm117.35 1.099c-7.0594 2.6083 4.3825 1.391 0 0zm1.4287 0.27475c-0.52969 2.1479 2.8518-0.0846 0 0zm-14.067 3.4343c-3.1544 1.2416-7.0874 4.8351-2.0881 3.7091 2.0714-1.8361 7.5384 1.8713 4.0937-1.8957-0.59488-0.90126-2.0438-0.76067-2.0056-1.8133zm6.8687 3.1321c-0.43504 1.3119 1.6985 0.78762 0 0zm-1.3462 0.30222c-1.8253 1.1537 2.003 0.88236 0 0zm-6.0719 0.96166c-6.1816 1.9056 2.8954 1.5382 0 0zm2.83 0.96166c-2.7263 1.6412 1.8029 1.0989 0 0zm17.501 0.87919c-1.8713 1.38 1.4912 0.7723 0 0zm-125.97 2.3079c-4.5414 1.0078 2.4628 1.6606 0 0zm13.6 2.9673c-3.5591 1.4322 2.7839 0.93599 0 0zm-1.7858 1.0165c-3.5103 2.4168 3.1969 0.30525 0 0zm23.546 1.5386c-4.562 1.3967 2.8678 1.5114 0 0zm68.631 0.52202c-4.2936 2.2788 3.0804 0.60917 0 0zm-69.401 0.87919c-3.2405 3.204 2.0207 3.3482 0 0zm-41.267 1.6485c-4.828 1.145 0.99542 1.9225 0 0zm39.893 0.38465c-0.45149 0.41898 0.70571 0.42692 0 0zm-45.554 1.4287c-3.6089 2.1582 2.0552 1.378 0 0zm44.536 0.0549c-4.3086 2.593 5.0722-0.0258 0 0zm-47.037 0.6594c-2.4869 1.2317 1.0556 1.3066 0 0zm113.3 0.49454c-2.9874 1.3482 2.8204 0.90997 0 0zm-66.324 0.30223c-2.2133 0.0445 0.39498 3.5428 0.1099 0.13737zm98.962 2.5826c-2.4344 0.84603-10.254 7.5876-4.7531 6.8412 4.3381-0.75028 0.91216 2.6309 5.0506 0.0201-0.37919 3.8009 3.144-1.0248 1.2136-1.1466 0.92455-3.5771-2.2495-1.6088-3.1871-3.4893 0.21425-0.74167 2.543-1.4248 1.6759-2.2254zm-97.81 1.1264c-0.4298 3.3333 7.0084 6.2862 3.1046 1.1539-1.2316-0.35676-1.7653-1.229-3.1046-1.1539zm85.364 1.5112c1.3553 3.4807 5.2817 0.13547 0 0zm-30.964 2.198c0.16211-0.0396 0.41958 0.39817 0 0zm33.355 1.7034c-1.5711 1.0308 0.39409 1.0526 0 0zm-3.819 1.099c-0.23992 3.188 4.9389 1.0629 0.24727 0.0274zm4.863 0.0274c-4.7072 3.0144 2.3909 3.2769 0 0zm-30.222 3.3244 0.0274 0.27475zm1.731 3.7366c0.18935 0.14424-0.14789 0.15232 0 0zm-12.995 34.618c-5.6383 1.357-3.546 3.6855 0.10985 0.82425 0.93476 1.6318 3.7636 0.9308 5.0828 3.0772 2.3558 3.8943 9.0583 0.65295 2.9673-0.49455-3.0425-1.4857-4.6134-3.751-8.16-3.4069zm-1.2089 2.143c-2.728 1.155 2.4026 1.3177 0 0zm15.578 3.5168c-4.2451-0.41807 2.5709 3.8319-3.5992 2.3903 2.7623 2.7333 5.6968-0.0426 8.5721 0.82428 2.5442-1.66-3.5045-3.3142-4.9729-3.2145zm7.638 2.3353c-0.84997 2.9601 5.4713-0.18221 0 0zm1.5112 1.2638c-0.19662 0.14404 0.68094-0.0456 0 0zm-18.216-1.044c-0.25873 2.8491 5.3116-0.10296 0 5e-5z"/>
</g>
</svg>
